<svg version="1.1" id="Layer_1" xmlns="http://www.w3.org/2000/svg" xmlns:xlink="http://www.w3.org/1999/xlink" x="0px" y="0px"
	 width="85px" viewBox="0 0 608 608" enable-background="new 0 0 608 608" xml:space="preserve">
<path fill="#000000" opacity="1.000000" stroke="none" 
	d="
M330.086151,389.936218 
	C318.253967,380.972321 306.651154,372.292847 295.208282,363.407379 
	C292.247009,361.107941 289.201813,360.282867 285.534302,360.293549 
	C258.049835,360.373627 230.562515,360.537872 203.081238,360.224213 
	C188.522522,360.058044 175.414673,355.472687 166.132736,343.551727 
	C152.539093,326.093201 153.840179,303.962280 169.114563,286.344604 
	C176.686874,277.610565 185.757156,271.029816 196.937302,267.681274 
	C199.756866,266.836792 201.522202,265.475983 201.990601,262.334442 
	C205.628510,237.934647 225.929642,220.375031 254.670944,219.915634 
	C257.604858,219.868713 259.580872,218.801056 261.478882,216.593521 
	C272.404602,203.886063 286.626495,197.848053 303.083191,196.686432 
	C320.398682,195.464188 336.663177,199.119659 349.380157,211.200195 
	C355.963104,217.453690 361.371094,219.877548 370.923981,219.156219 
	C396.865417,217.197372 416.780548,235.717041 419.353424,261.805267 
	C419.640289,264.714172 420.612122,266.815918 423.688202,267.746735 
	C444.183167,273.948517 452.867096,289.519684 456.239929,309.170715 
	C458.457458,322.090576 456.742615,334.631958 452.558960,346.989807 
	C449.283722,356.664215 442.307159,360.341583 432.680084,360.334381 
	C417.188660,360.322845 401.697266,360.322174 386.205841,360.341400 
	C378.579102,360.350861 377.216492,361.723145 377.206085,369.388641 
	C377.189117,381.881683 377.180542,394.374817 377.220093,406.867798 
	C377.232788,410.876984 376.764954,414.821899 372.730194,416.687256 
	C368.864136,418.474548 365.463409,416.895386 362.182159,414.341644 
	C351.669861,406.160034 340.990204,398.193451 330.086151,389.936218 
M265.799103,267.741119 
	C269.136444,269.980347 270.916077,268.079926 272.555450,265.336151 
	C278.842773,254.813354 286.218903,245.198563 296.330109,238.021347 
	C301.196014,234.567398 306.181000,234.884048 308.814606,238.511642 
	C311.737396,242.537613 310.501099,247.085342 305.552155,250.867828 
	C295.821167,258.305267 288.798462,267.905212 283.310242,278.746094 
	C282.133728,281.070038 282.156555,283.072479 283.613129,285.282593 
	C286.561432,289.756134 288.886200,294.565735 290.080597,299.811768 
	C290.678680,302.438904 292.252472,303.846069 294.656830,304.538727 
	C310.525299,309.110107 325.293091,307.350800 338.511475,296.834900 
	C347.297211,289.845428 353.485718,280.856689 358.554016,270.966522 
	C361.052063,266.091888 365.521637,264.364990 369.669769,266.367371 
	C373.774780,268.348907 375.079163,272.979828 372.723022,277.920654 
	C368.027222,287.767548 362.098602,296.818909 354.252991,304.437012 
	C351.526825,307.084137 351.133972,309.500275 352.577637,312.840546 
	C354.652985,317.642303 357.396088,321.326385 362.811859,322.910706 
	C367.218506,324.199799 369.043182,328.421997 367.768616,332.427856 
	C366.466675,336.519806 362.788116,338.619690 358.351959,337.786713 
	C353.453094,336.866882 349.325104,334.599243 345.843750,330.988434 
	C343.026001,328.065887 340.955872,324.682434 339.046875,321.162750 
	C337.771179,318.810730 335.966003,317.639954 333.293030,318.713898 
	C320.981567,323.660492 308.377686,324.197205 295.573669,321.145905 
	C292.221680,320.347076 290.521759,321.645081 289.709320,324.753479 
	C288.479736,329.457672 286.483765,333.838501 284.072235,338.052124 
	C281.322235,342.857147 282.320648,344.651306 288.002625,344.612640 
	C292.752869,344.580322 296.975311,345.070862 301.046509,348.248169 
	C317.328918,360.955322 333.888214,373.307495 350.328156,385.813263 
	C352.752228,387.657227 355.172913,389.768921 358.426666,388.205597 
	C361.908997,386.532501 361.679443,383.144897 361.671875,379.936951 
	C361.651031,371.105591 361.622803,362.273865 361.685394,353.442871 
	C361.728271,347.392059 364.038513,344.962860 370.079559,344.727661 
	C374.405731,344.559265 378.756500,344.459991 383.071655,344.727478 
	C387.438141,344.998108 390.055908,343.607178 391.968536,339.360504 
	C395.579376,331.343323 401.317688,324.800934 408.402588,319.570618 
	C412.687653,316.407257 417.781189,316.912720 420.486389,320.449036 
	C423.375488,324.225769 422.434082,328.420135 418.040771,332.149292 
	C415.761444,334.083984 413.606171,336.179443 411.529022,338.331787 
	C410.432129,339.468384 408.847260,340.639496 409.879913,342.610199 
	C410.761902,344.293335 412.371368,344.658234 414.133148,344.655701 
	C419.631927,344.647705 425.141113,344.454651 430.626190,344.731598 
	C435.089417,344.957031 437.446594,342.960785 438.613770,338.893768 
	C441.312378,329.490479 442.399139,319.958862 440.502258,310.297028 
	C438.379700,299.485596 434.205078,289.908844 423.649994,284.545929 
	C419.715240,282.546722 417.028900,282.888916 414.912384,287.443939 
	C411.566681,294.644287 406.461884,300.592163 399.770172,305.026489 
	C394.590729,308.458679 389.689758,307.965240 387.039581,303.824219 
	C384.422729,299.735229 385.721375,295.506866 390.681702,291.965576 
	C401.446167,284.280548 406.181580,271.809662 403.196411,259.007996 
	C397.894867,236.272888 373.635193,227.515198 353.558929,240.943909 
	C340.777985,249.492874 333.208099,261.720642 328.003296,275.768250 
	C326.067383,280.993256 322.036407,283.243011 317.619781,281.707092 
	C313.440247,280.253632 311.708954,276.228241 313.049225,270.955261 
	C313.335419,269.829315 313.770569,268.737793 314.183685,267.648102 
	C319.544739,253.508850 327.747894,241.341599 339.456055,231.685638 
	C342.349243,229.299606 343.736603,227.352158 340.407318,224.072479 
	C321.796234,205.738861 285.663300,208.901779 270.988953,230.515915 
	C267.963715,234.971893 264.568054,236.945099 259.367554,236.236343 
	C257.725586,236.012558 256.040955,236.086319 254.375305,236.054123 
	C225.957870,235.504990 209.120117,261.208527 220.976349,288.518341 
	C223.847672,295.132202 227.808884,301.096710 232.989304,306.192474 
	C233.817261,307.006866 234.685501,307.848938 235.262787,308.837280 
	C237.393997,312.486053 237.676315,316.124847 234.445877,319.322632 
	C231.601181,322.138580 226.786346,322.164978 223.580521,319.155396 
	C214.292572,310.436035 207.552902,300.035858 203.859879,287.794312 
	C202.546356,283.440308 200.239258,282.789734 196.374176,284.801453 
	C189.134567,288.569580 183.022217,293.648529 178.344833,300.281891 
	C165.874573,317.967010 175.212265,340.377930 196.575638,343.615326 
	C212.454178,346.021484 228.527817,345.060516 244.446136,344.298309 
	C258.993591,343.601807 269.633789,335.841705 274.084503,321.474487 
	C278.660675,306.702209 273.596466,294.708984 262.168671,284.978638 
	C258.857391,282.159241 255.158081,279.928345 251.426147,277.711304 
	C247.677811,275.484467 246.536453,271.120453 248.359772,267.286316 
	C250.075485,263.678497 253.863953,262.133301 258.085419,263.703186 
	C260.555115,264.621613 262.811340,266.114258 265.799103,267.741119 
z"/>
</svg>